<?xml version="1.0" encoding="UTF-8"?>
<svg xmlns="http://www.w3.org/2000/svg" xmlns:xlink="http://www.w3.org/1999/xlink" width="100px" height="118px" viewBox="0 0 100 118" version="1.1">
<g id="surface1">
<path style=" stroke:none;fill-rule:nonzero;fill:rgb(14.509804%,23.137255%,50.196078%);fill-opacity:1;" d="M 28.40625 113.78125 L 30.453125 100.84375 L 25.898438 100.738281 L 4.148438 100.738281 L 19.261719 5.28125 C 19.308594 4.992188 19.460938 4.726562 19.683594 4.53125 C 19.90625 4.34375 20.191406 4.238281 20.492188 4.238281 L 57.160156 4.238281 C 69.335938 4.238281 77.734375 6.761719 82.125 11.742188 C 84.179688 14.078125 85.488281 16.519531 86.121094 19.207031 C 86.789062 22.023438 86.796875 25.394531 86.148438 29.503906 L 86.101562 29.804688 L 86.101562 32.4375 L 88.15625 33.59375 C 89.890625 34.507812 91.265625 35.558594 92.320312 36.757812 C 94.082031 38.757812 95.21875 41.292969 95.703125 44.304688 C 96.195312 47.398438 96.03125 51.085938 95.21875 55.253906 C 94.28125 60.054688 92.765625 64.230469 90.71875 67.648438 C 88.832031 70.800781 86.429688 73.414062 83.582031 75.4375 C 80.859375 77.359375 77.625 78.820312 73.96875 79.757812 C 70.429688 80.675781 66.390625 81.140625 61.960938 81.140625 L 59.109375 81.140625 C 57.066406 81.140625 55.085938 81.871094 53.53125 83.183594 C 51.96875 84.523438 50.9375 86.351562 50.621094 88.355469 L 50.40625 89.519531 L 46.792969 112.320312 L 46.628906 113.15625 C 46.585938 113.421875 46.511719 113.554688 46.402344 113.640625 C 46.304688 113.726562 46.164062 113.78125 46.023438 113.78125 Z M 28.40625 113.78125 "/>
<path style=" stroke:none;fill-rule:nonzero;fill:rgb(9.019608%,60.784314%,84.313725%);fill-opacity:1;" d="M 90.105469 30.105469 C 89.996094 30.804688 89.871094 31.515625 89.730469 32.25 C 84.894531 56.980469 68.351562 65.523438 47.21875 65.523438 L 36.460938 65.523438 C 33.875 65.523438 31.699219 67.390625 31.296875 69.929688 L 25.789062 104.730469 L 24.226562 114.59375 C 23.964844 116.257812 25.257812 117.765625 26.945312 117.765625 L 46.023438 117.765625 C 48.285156 117.765625 50.203125 116.125 50.5625 113.90625 L 50.75 112.941406 L 54.34375 90.234375 L 54.570312 88.984375 C 54.921875 86.757812 56.847656 85.125 59.109375 85.125 L 61.960938 85.125 C 80.449219 85.125 94.921875 77.648438 99.152344 56.007812 C 100.921875 46.96875 100.003906 39.425781 95.328125 34.117188 C 93.914062 32.515625 92.15625 31.1875 90.105469 30.105469 Z M 90.105469 30.105469 "/>
<path style=" stroke:none;fill-rule:nonzero;fill:rgb(13.333333%,17.647059%,39.607843%);fill-opacity:1;" d="M 85.046875 28.097656 C 84.308594 27.882812 83.546875 27.6875 82.765625 27.511719 C 81.976562 27.34375 81.171875 27.1875 80.34375 27.054688 C 77.445312 26.589844 74.265625 26.367188 70.859375 26.367188 L 42.117188 26.367188 C 41.40625 26.367188 40.734375 26.527344 40.132812 26.816406 C 38.8125 27.453125 37.824219 28.703125 37.585938 30.230469 L 31.46875 68.804688 L 31.296875 69.929688 C 31.699219 67.390625 33.875 65.523438 36.460938 65.523438 L 47.21875 65.523438 C 68.351562 65.523438 84.894531 56.976562 89.730469 32.25 C 89.875 31.515625 89.996094 30.804688 90.105469 30.105469 C 88.882812 29.460938 87.554688 28.90625 86.128906 28.4375 C 85.777344 28.320312 85.414062 28.203125 85.046875 28.097656 Z M 85.046875 28.097656 "/>
<path style=" stroke:none;fill-rule:nonzero;fill:rgb(14.509804%,23.137255%,50.196078%);fill-opacity:1;" d="M 37.585938 30.230469 C 37.824219 28.703125 38.8125 27.453125 40.132812 26.820312 C 40.742188 26.53125 41.40625 26.371094 42.117188 26.371094 L 70.859375 26.371094 C 74.265625 26.371094 77.445312 26.59375 80.34375 27.0625 C 81.171875 27.195312 81.976562 27.34375 82.765625 27.515625 C 83.546875 27.691406 84.308594 27.886719 85.046875 28.101562 C 85.414062 28.210938 85.777344 28.320312 86.132812 28.4375 C 87.5625 28.90625 88.886719 29.464844 90.109375 30.105469 C 91.546875 20.96875 90.097656 14.742188 85.136719 9.109375 C 79.667969 2.90625 69.796875 0.25 57.164062 0.25 L 20.492188 0.25 C 17.914062 0.25 15.710938 2.117188 15.3125 4.664062 L 0.0390625 101.101562 C -0.261719 103.007812 1.214844 104.730469 3.148438 104.730469 L 25.789062 104.730469 L 31.46875 68.804688 Z M 37.585938 30.230469 "/>
</g>
</svg>
